<?xml version="1.0" standalone="no"?>
<!DOCTYPE svg PUBLIC "-//W3C//DTD SVG 20010904//EN"
 "http://www.w3.org/TR/2001/REC-SVG-20010904/DTD/svg10.dtd">
<svg version="1.0" xmlns="http://www.w3.org/2000/svg"
 width="1920.000000pt" height="1260.000000pt" viewBox="0 0 1920.000000 1260.000000"
 preserveAspectRatio="xMidYMid meet">

<g transform="translate(0.000000,1260.000000) scale(0.100000,-0.100000)"
fill="#000000" stroke="none">
<path d="M0 8440 c0 -2288 3 -4160 6 -4160 4 0 13 8 20 18 18 25 160 25 178 0
10 -14 27 -18 69 -18 31 0 61 -6 69 -13 48 -46 105 -61 132 -34 12 11 33 17
66 17 26 0 61 7 76 15 23 12 71 15 232 15 168 0 202 2 202 14 0 10 17 16 58
21 31 3 65 10 75 16 9 5 45 12 79 16 34 3 73 12 88 20 14 7 43 13 65 13 22 0
49 7 59 15 11 8 40 15 65 15 26 0 51 6 62 16 10 9 37 18 61 21 24 3 52 12 63
19 11 8 40 14 65 14 25 0 58 7 74 15 16 9 70 18 120 22 49 3 102 12 116 20 16
8 64 13 143 13 80 0 127 4 145 14 15 7 67 16 117 20 49 4 96 12 103 19 7 6 53
12 100 14 48 2 103 10 122 18 25 10 97 15 260 18 153 2 235 7 255 16 19 8 112
16 255 21 124 4 248 13 277 19 72 16 1804 11 1824 -5 8 -7 71 -14 144 -17 80
-3 145 -11 170 -21 47 -18 111 -21 121 -5 3 6 21 17 38 25 17 8 45 23 61 34
53 34 79 49 112 64 17 9 34 20 38 26 3 5 14 10 24 10 10 0 24 6 30 14 7 8 26
18 42 21 16 4 29 11 29 16 0 5 12 12 28 15 15 4 38 15 51 26 13 10 29 18 36
18 7 0 18 7 25 15 7 8 23 15 35 15 13 0 25 7 29 15 3 8 14 15 24 15 11 0 31 9
45 20 14 11 34 20 45 20 11 0 22 7 26 15 3 8 16 15 29 15 14 0 30 7 37 15 7 8
17 15 23 15 9 0 69 26 130 56 16 8 36 14 45 14 9 0 31 9 47 20 17 11 44 20 60
20 17 0 39 7 49 15 11 8 39 15 62 15 23 0 59 8 80 17 58 25 380 26 442 1 23
-10 61 -18 85 -18 23 0 51 -7 61 -15 11 -8 31 -15 45 -15 14 0 39 -7 55 -15
16 -8 46 -18 67 -21 21 -4 44 -13 50 -20 6 -8 30 -14 53 -14 23 0 51 -7 62
-15 10 -8 27 -15 37 -15 26 0 254 -104 267 -122 3 -4 17 -12 30 -18 14 -6 43
-21 65 -35 38 -23 47 -27 78 -40 6 -3 44 -23 82 -45 39 -22 82 -45 98 -51 15
-6 27 -15 27 -19 0 -5 14 -11 30 -15 17 -4 30 -10 30 -15 0 -5 16 -14 35 -20
19 -6 35 -16 35 -21 0 -5 7 -9 16 -9 9 0 33 -10 52 -22 34 -21 36 -21 66 -4
16 10 53 20 80 23 28 4 61 12 75 20 15 7 51 13 81 13 32 0 64 6 76 14 11 8 56
18 100 22 43 4 85 11 92 17 7 5 45 12 85 15 39 3 81 11 92 18 11 8 39 14 63
14 24 0 57 7 75 16 17 9 61 19 97 22 36 2 74 9 84 15 11 5 54 12 95 16 88 7
88 7 90 135 1 61 5 84 19 99 16 18 17 64 22 571 l5 551 195 5 c129 3 202 9
217 18 12 6 48 12 80 12 39 0 71 7 96 20 28 15 57 20 119 20 46 1 119 7 163
15 44 8 114 15 155 15 42 0 100 6 130 14 30 7 101 16 157 19 57 4 113 12 125
19 15 8 79 14 188 16 111 2 177 7 200 17 19 7 82 16 140 19 58 2 137 12 175
20 39 9 88 16 111 16 22 0 46 6 52 12 12 12 81 16 637 37 214 8 329 22 370 43
11 6 50 13 87 16 40 3 72 10 79 18 6 8 25 14 42 14 17 0 38 7 48 16 10 9 36
18 58 21 22 3 46 12 52 19 6 8 26 14 43 14 17 0 41 6 51 14 20 14 78 26 221
48 61 9 80 8 122 -6 28 -9 59 -16 69 -16 10 0 32 -9 48 -20 17 -11 38 -20 48
-20 9 0 17 -5 17 -10 0 -6 11 -15 25 -20 29 -11 45 -23 89 -67 l33 -32 724 -3
c671 -3 727 -4 752 -20 14 -10 44 -18 65 -18 23 0 45 -6 52 -15 7 -8 21 -15
31 -15 10 0 61 -38 113 -86 68 -61 97 -94 102 -116 3 -18 12 -38 19 -45 7 -7
16 -31 20 -54 4 -23 14 -57 21 -75 8 -18 14 -49 14 -69 l0 -35 56 0 c30 0 65
6 77 12 12 7 70 15 129 18 63 4 113 11 122 19 8 7 57 15 113 18 57 4 106 12
118 19 12 9 47 14 93 14 42 0 88 6 109 15 49 21 222 21 249 0 10 -8 40 -15 65
-15 29 0 51 -6 59 -15 7 -8 19 -15 27 -15 9 0 51 -35 95 -77 76 -74 112 -125
120 -168 1 -11 11 -29 21 -39 9 -11 17 -27 17 -36 0 -12 17 -19 73 -28 92 -15
164 -35 179 -50 7 -7 41 -12 83 -12 38 -1 88 -5 110 -9 85 -19 150 -40 153
-50 2 -6 13 -11 24 -11 21 0 108 -47 108 -59 0 -11 112 -131 122 -131 4 0 8
1616 8 3590 l0 3590 -9600 0 -9600 0 0 -4160z"/>
</g>
</svg>
